<svg xmlns="http://www.w3.org/2000/svg" width="146.873" height="150" viewBox="0 0 146.873 150"><defs><style>.a{fill:#e8e8e9;}.b{fill:#ef3829;}</style></defs><g transform="translate(-0.023 0.002)"><g transform="translate(0.023 -0.002)"><g transform="translate(92.374 9.737)"><path class="a" d="M22.8,3.211c.406-.405.406-.405.811-.405a.4.4,0,0,1,.406-.405Z" transform="translate(-22.8 -2.4)"/></g><g transform="translate(132.524 49.87)"><path class="a" d="M32.7,13.111l.811-.811a.4.4,0,0,0-.406.405A.4.4,0,0,1,32.7,13.111Z" transform="translate(-32.7 -12.3)"/></g><path class="a" d="M134.222,18.765,124.083,28.9a3.1,3.1,0,0,1-2.028.811l-8.111-1.622c-.811,0-1.622-.811-2.028-2.027l-1.622-8.108c0-.811,0-1.622.811-2.027L118,9.035A4.788,4.788,0,0,0,115.566.928a27.971,27.971,0,0,0-23.928,7.7,29.052,29.052,0,0,0-6.489,29.188,2.488,2.488,0,0,1-.406,2.432L3.631,121.327a9.662,9.662,0,0,0-.406,13.783l2.433,2.432a9.672,9.672,0,0,0,13.789-.405l81.112-81.482a1.911,1.911,0,0,1,2.433-.405,28.191,28.191,0,0,0,28.795-6.486,28.13,28.13,0,0,0,6.489-28.377C137.467,18.359,135.439,17.548,134.222,18.765Z" transform="translate(1.546 1.918)"/><path d="M13.718,143.512a12.883,12.883,0,0,1-8.111-3.243l-2.433-2.432a11.992,11.992,0,0,1,.406-16.621L84.691,40.139c-3.65-11.351-1.217-23.107,6.895-31.62A29.885,29.885,0,0,1,117.136.411a6.611,6.611,0,0,1,5.272,4.459,7.017,7.017,0,0,1-1.622,6.892l-6.895,6.892,1.622,8.513,8.517,2.027L134.17,19.059a3.891,3.891,0,0,1,4.056-1.216,4.636,4.636,0,0,1,3.244,2.838,30.076,30.076,0,0,1-6.895,30.4,29.951,29.951,0,0,1-30.823,6.892L22.235,139.863A11.675,11.675,0,0,1,13.718,143.512ZM112.675,4.06a27.231,27.231,0,0,0-18.25,7.3,25.749,25.749,0,0,0-5.678,27.161,5.627,5.627,0,0,1-.811,4.459L6.823,124.053A7.7,7.7,0,0,0,6.418,135l2.433,2.432a7.712,7.712,0,0,0,10.95-.405l81.112-81.482a4.578,4.578,0,0,1,4.461-1.216,26.244,26.244,0,0,0,26.767-6.081,25.336,25.336,0,0,0,6.083-26.35l-.406-.405h-.406l-9.733,9.729a3.891,3.891,0,0,1-4.056,1.216l-8.111-1.622a3.374,3.374,0,0,1-4.056-2.432l-1.622-8.108a3.888,3.888,0,0,1,1.217-4.054l6.895-6.892a3.858,3.858,0,0,0,.811-2.838,2.22,2.22,0,0,0-2.028-1.622A7.315,7.315,0,0,0,112.675,4.06Z" transform="translate(-0.023 0.002)"/></g><g transform="translate(9.095 12.383)"><path class="a" d="M86.794,78.638,31.637,23.506a5.6,5.6,0,0,1-1.217-1.622L28.8,15.8a10.749,10.749,0,0,0-2.028-2.432L12.17,4.453a4.868,4.868,0,0,0-6.083.405L4.059,6.885a4.863,4.863,0,0,0-.406,6.081l9.328,14.188a5.961,5.961,0,0,0,2.433,2.027L21.5,31.208c.811.405,1.217.811,2.028,1.216L78.682,87.962a4.669,4.669,0,0,0,6.895,0L87.6,85.935C88.821,83.5,88.821,80.665,86.794,78.638Z" transform="translate(-0.652 -1.426)"/><path d="M83.129,92.833a7.484,7.484,0,0,1-4.867-2.027L23.106,35.268c-.406-.405-.811-.405-1.217-.811l-6.083-2.027c-.811,0-2.433-1.216-3.244-2.432L3.233,15.81A7.393,7.393,0,0,1,4.45,6.891L6.478,4.865a6.777,6.777,0,0,1,8.111-.811l14.6,8.918a6.47,6.47,0,0,1,2.839,3.648L34.056,22.7c0,.405.406.811.811,1.216L90.024,79.05c2.433,2.432,2.839,6.892,0,9.324L88,90.4a5.782,5.782,0,0,1-4.867,2.432ZM11.345,7.3a3.1,3.1,0,0,0-2.028.811L7.289,9.729a2.6,2.6,0,0,0-.406,3.648l9.328,14.188q.608,1.216,1.217,1.216l6.083,2.027a10.167,10.167,0,0,1,2.839,1.622L81.1,87.968a2.941,2.941,0,0,0,4.056,0l2.028-2.027a2.558,2.558,0,0,0,0-3.648L32.028,26.755a4.1,4.1,0,0,1-1.622-2.838l-2.028-5.675c0-.405-.811-1.216-1.217-1.622L12.561,7.7A1.49,1.49,0,0,0,11.345,7.3Z" transform="translate(-2.26 -3.053)"/></g><g transform="translate(83.864 86.606)"><path class="b" d="M31.871,48.245l-7.3-1.622A1.744,1.744,0,0,1,22.949,45l-1.622-4.459a2.488,2.488,0,0,1,.406-2.432l15.411-15.4a1.911,1.911,0,0,1,2.433-.405l3.65,1.216a3.894,3.894,0,0,1,2.839,3.648l.811,5.27c0,.405.406.811.811,1.216l29.2,29.188a9.439,9.439,0,0,1,.406,12.972l-.406.405-2.028,2.027a9.449,9.449,0,0,1-12.978.405l-.406-.405L32.682,49.056C32.682,48.245,32.277,48.245,31.871,48.245Z" transform="translate(-19.282 -19.311)"/><path d="M69.785,84.754a11.082,11.082,0,0,1-7.706-3.243l-.406-.405L33.285,51.918l.406-2.027-.406,2.027-7.3-1.622a3.929,3.929,0,0,1-3.244-2.838L21.118,43a4.31,4.31,0,0,1,.811-4.865l15.411-15.4a5.332,5.332,0,0,1,4.867-1.216l3.65,1.216A6.609,6.609,0,0,1,50.318,28l.811,5.27,29.2,29.188c4.461,4.054,4.461,11.351.406,15.81L78.3,80.7a10.72,10.72,0,0,1-8.517,4.054ZM40.179,25.974h0l-15.817,15.4v.405l1.622,4.459,7.3,1.622c.811,0,1.622.811,2.433,1.216L64.513,78.268A7.854,7.854,0,0,0,69.785,80.7a5.782,5.782,0,0,0,4.867-2.432l2.028-2.027c2.839-3.243,2.839-7.7,0-10.54l-29.2-29.188a3.5,3.5,0,0,1-1.217-2.432l-.811-5.27a2.694,2.694,0,0,0-1.622-2.027l-3.65-.811Z" transform="translate(-20.696 -21.363)"/></g></g></svg>