<svg xmlns="http://www.w3.org/2000/svg" width="26.51" height="26.51" viewBox="0 0 26.51 26.51"><defs><style>.a{fill:#ef3829;}</style></defs><g transform="translate(-179 -11)"><g transform="translate(179 11)"><path class="a" d="M76.73,22.464a13.875,13.875,0,1,0-.17-.185A.782.782,0,0,0,76.73,22.464Zm9.525,2.52A11.679,11.679,0,0,1,78.68,22.2c3.437-1.141,4.709-2.528,5.179-3.452a5.585,5.585,0,0,0,2.2.447h.177a5.612,5.612,0,0,0,2.358-.524c.439.925,1.688,2.358,5.225,3.53A11.622,11.622,0,0,1,86.255,24.984ZM81.97,10.8v-.046c.185-4.015,3.144-4.331,4.054-4.331h.247c.9,0,3.869.316,4.054,4.331V10.8c.008.039.385,3.753-1.349,5.7a3.564,3.564,0,0,1-2.8,1.164h-.046a3.578,3.578,0,0,1-2.8-1.164C81.593,14.573,81.962,10.843,81.97,10.8Zm4.285-9.278a11.723,11.723,0,0,1,8.808,19.466c-4.978-1.449-5.171-3.206-5.171-3.229V17.8h-.054c.092-.092.185-.185.277-.285,2.119-2.381,1.765-6.458,1.726-6.859C91.634,6.4,88.713,4.894,86.27,4.894h-.247c-2.443,0-5.371,1.51-5.572,5.764-.039.393-.385,4.47,1.726,6.859.123.139.254.27.385.393-.162.447-.979,1.865-5.117,3.075A11.718,11.718,0,0,1,86.255,1.526Z" transform="translate(-73)"/></g></g></svg>