<svg xmlns="http://www.w3.org/2000/svg" width="148.034" height="135.396" viewBox="0 0 148.034 135.396"><defs><style>.a{fill:#fff;}.b{fill:#ef3829;}.c{fill:#dedede;}</style></defs><g transform="translate(0.001 -0.5)"><path class="a" d="M81.141,140.112a11.534,11.534,0,0,0-11.58-11.489H10V10.5H69.561a11.534,11.534,0,0,1,11.58,11.489V139.234" transform="translate(-7.107 -7.106)"/><path class="a" d="M255.938,140.112a11.534,11.534,0,0,1,11.58-11.489h59.564V10.5H267.518a11.534,11.534,0,0,0-11.58,11.489V139.234" transform="translate(-181.94 -7.106)"/><path class="b" d="M103.973,422.332H219.018v11.581H103.973Zm0,0" transform="translate(-73.912 -300.907)"/><path class="b" d="M110.473,70.484h30.5V82.046h-30.5Zm0,0" transform="translate(-78.533 -49.75)"/><path class="c" d="M110.473,250.438h30.5v34.688h-30.5Zm0,0" transform="translate(-78.533 -178.411)"/><path class="c" d="M356.41,70.484h30.532v34.686H356.41Zm0,0" transform="translate(-253.362 -49.75)"/><path d="M90.862,60.484H42.879a2.892,2.892,0,0,0-2.891,2.891V74.937a2.892,2.892,0,0,0,2.891,2.89H90.862a2.891,2.891,0,0,0,2.891-2.89V63.376A2.891,2.891,0,0,0,90.862,60.484Zm-2.89,11.563h-42.2V66.266h42.2Zm0,0" transform="translate(-28.427 -42.641)"/><path d="M90.862,148.465H42.879a2.89,2.89,0,1,0,0,5.78H90.862a2.89,2.89,0,1,0,0-5.78Zm0,0" transform="translate(-28.427 -105.524)"/><path d="M90.862,188.453H42.879a2.891,2.891,0,1,0,0,5.781H90.862a2.891,2.891,0,1,0,0-5.781Zm0,0" transform="translate(-28.427 -134.042)"/><path d="M90.862,240.441H42.879a2.892,2.892,0,0,0-2.891,2.89v34.688a2.892,2.892,0,0,0,2.891,2.89H90.862a2.891,2.891,0,0,0,2.891-2.89V243.331A2.891,2.891,0,0,0,90.862,240.441Zm-5.244,5.78L67.882,263.958l-5.471-5.471a2.89,2.89,0,0,0-4.088,0L45.769,271.04V246.223H85.618ZM49.858,275.127l10.509-10.509,5.472,5.472a2.891,2.891,0,0,0,4.087,0l18.046-18.046v23.083Zm0,0" transform="translate(-28.427 -171.318)"/><path d="M148.033,3.368A2.88,2.88,0,0,0,145.143.5H85.578A14.5,14.5,0,0,0,74.016,6.235,14.5,14.5,0,0,0,62.454.5H2.889A2.88,2.88,0,0,0,0,3.368v129.66a2.88,2.88,0,0,0,2.89,2.868h13.3a2.868,2.868,0,1,0,0-5.736H5.781V124.4H62.454a8.7,8.7,0,0,1,8.193,5.755H44.8a2.868,2.868,0,1,0,0,5.736h100.3a2.88,2.88,0,0,0,2.89-2.868ZM85.578,6.237h56.674v112.43H85.578a14.462,14.462,0,0,0-8.652,2.858V14.861c0-.2-.008-.388-.015-.581a8.671,8.671,0,0,1,8.667-8.043ZM62.454,118.667H5.781V6.237H62.454a8.671,8.671,0,0,1,8.667,8.043c-.007.193-.015.386-.015.581V121.525a14.462,14.462,0,0,0-8.652-2.858Zm14.931,11.492a8.7,8.7,0,0,1,8.193-5.755h56.638v5.755Zm0,0"/><path d="M288.946,246.222h47.983a2.89,2.89,0,1,0,0-5.78H288.946a2.89,2.89,0,1,0,0,5.78Zm0,0" transform="translate(-203.349 -171.119)"/><path d="M288.946,286.211h47.983a2.891,2.891,0,1,0,0-5.781H288.946a2.891,2.891,0,1,0,0,5.781Zm0,0" transform="translate(-203.349 -199.638)"/><path d="M288.946,326.2h47.983a2.89,2.89,0,1,0,0-5.78H288.946a2.89,2.89,0,1,0,0,5.78Zm0,0" transform="translate(-203.349 -228.159)"/><path d="M288.946,366.191h47.983a2.891,2.891,0,1,0,0-5.781H288.946a2.891,2.891,0,1,0,0,5.781Zm0,0" transform="translate(-203.349 -256.677)"/><path d="M371.859,66.266a2.892,2.892,0,1,0-2.043-.847A2.914,2.914,0,0,0,371.859,66.266Zm0,0" transform="translate(-262.29 -42.641)"/><path d="M288.946,100.952h47.983a2.891,2.891,0,0,0,2.891-2.89V63.375a2.892,2.892,0,0,0-2.891-2.891H326.2a2.891,2.891,0,0,0,0,5.781h7.841V95.171h-42.2V66.265H299.6a2.891,2.891,0,0,0,0-5.781H288.946a2.891,2.891,0,0,0-2.891,2.891V98.062a2.891,2.891,0,0,0,2.891,2.89Zm0,0" transform="translate(-203.349 -42.641)"/><path d="M99.2,452.387a2.892,2.892,0,1,0,2.043.847A2.914,2.914,0,0,0,99.2,452.387Zm0,0" transform="translate(-68.461 -322.272)"/></g></svg>