<svg xmlns="http://www.w3.org/2000/svg" width="97.651" height="150" viewBox="0 0 97.651 150"><defs><style>.a{fill:#f07f2e;}.b{fill:#fff;}.c{fill:#dedede;}.d{fill:#ef3829;}.e{fill:#afafaf;}</style></defs><g transform="translate(-88.5)"><path class="a" d="M183.454,153.134H101.83a5.845,5.845,0,0,1-5.83-5.86V13.361A5.845,5.845,0,0,1,101.83,7.5h81.624a5.845,5.845,0,0,1,5.83,5.861V147.273A5.845,5.845,0,0,1,183.454,153.134Z" transform="translate(-5.317 -5.317)"/><path class="b" d="M183.454,153.134H101.83a5.845,5.845,0,0,1-5.83-5.86V13.361A5.845,5.845,0,0,1,101.83,7.5h81.624a5.845,5.845,0,0,1,5.83,5.861V147.273A5.845,5.845,0,0,1,183.454,153.134Z" transform="translate(-5.317 -5.317)"/><path class="c" d="M374.733,7.5H366a5.841,5.841,0,0,1,5.822,5.861V147.273a5.841,5.841,0,0,1-5.822,5.86h8.733a5.841,5.841,0,0,0,5.822-5.86V13.361A5.841,5.841,0,0,0,374.733,7.5Z" transform="translate(-196.587 -5.317)"/><ellipse class="c" cx="11.062" cy="11.062" rx="11.062" ry="11.062" transform="translate(126.264 14.264)"/><path class="d" d="M232.6,157.6H200V141.3A16.3,16.3,0,0,1,216.3,125h0a16.3,16.3,0,0,1,16.3,16.3Z" transform="translate(-78.976 -88.313)"/><path class="d" d="M216.753,439.644H181.822A5.822,5.822,0,0,1,176,433.822h0A5.822,5.822,0,0,1,181.822,428h34.932a5.822,5.822,0,0,1,5.822,5.822h0A5.822,5.822,0,0,1,216.753,439.644Z" transform="translate(-61.962 -302.452)"/><g transform="translate(105.596 49.158)"><path class="e" d="M247.644,180.689H236v-7.867A5.822,5.822,0,0,1,241.822,167h0a5.822,5.822,0,0,1,5.822,5.822Z" transform="translate(-210.092 -167)"/><path class="e" d="M241.822,351.662h0A5.822,5.822,0,0,1,236,345.84v-7.867h11.644v7.867A5.822,5.822,0,0,1,241.822,351.662Z" transform="translate(-210.092 -288.204)"/><path class="e" d="M293.913,208.569l-8.233-8.233,5.563-5.563a5.822,5.822,0,0,1,8.233,0h0a5.822,5.822,0,0,1,0,8.233Z" transform="translate(-245.311 -185.479)"/><path class="e" d="M174.772,319.476h0a5.821,5.821,0,0,1,0-8.233l5.563-5.563,8.233,8.233-5.563,5.563A5.822,5.822,0,0,1,174.772,319.476Z" transform="translate(-165.479 -265.311)"/><path class="e" d="M317.973,267.644V256h7.867a5.822,5.822,0,0,1,5.822,5.822h0a5.822,5.822,0,0,1-5.822,5.822Z" transform="translate(-268.203 -230.093)"/><path class="e" d="M147,261.822h0A5.822,5.822,0,0,1,152.822,256h7.867v11.644h-7.867A5.822,5.822,0,0,1,147,261.822Z" transform="translate(-147 -230.093)"/><path class="e" d="M285.68,313.913l8.233-8.233,5.563,5.563a5.822,5.822,0,0,1,0,8.233h0a5.822,5.822,0,0,1-8.233,0Z" transform="translate(-245.311 -265.311)"/><path class="e" d="M174.773,194.772h0a5.822,5.822,0,0,1,8.233,0l5.563,5.563-8.233,8.233-5.563-5.563A5.822,5.822,0,0,1,174.773,194.772Z" transform="translate(-165.479 -185.479)"/></g><path class="e" d="M220.788,211.969a20.378,20.378,0,1,0,0,28.818A20.382,20.382,0,0,0,220.788,211.969Zm-7.822,21a9.316,9.316,0,1,1,0-13.175A9.32,9.32,0,0,1,212.966,232.966Z" transform="translate(-69.053 -145.505)"/><path d="M183.965,88.5a2.193,2.193,0,0,0-2.186,2.2v113.97a3.659,3.659,0,0,1-3.644,3.667H96.516a3.659,3.659,0,0,1-3.644-3.667V193.963a2.186,2.186,0,1,0-4.372,0v10.708a8.051,8.051,0,0,0,8.016,8.067h81.619a8.051,8.051,0,0,0,8.016-8.067V90.7A2.193,2.193,0,0,0,183.965,88.5Z" transform="translate(0 -62.738)"/><path d="M178.135,0H96.516A8.051,8.051,0,0,0,88.5,8.067V121.941a2.186,2.186,0,1,0,4.372,0V8.067A3.659,3.659,0,0,1,96.516,4.4h81.619a3.659,3.659,0,0,1,3.644,3.667V18.775a2.186,2.186,0,1,0,4.372,0V8.067A8.051,8.051,0,0,0,178.135,0Z" transform="translate(0)"/><path d="M120.406,428.505a2.185,2.185,0,0,0,2.187,2.183h12.142a8.03,8.03,0,0,0,7.713,5.822h34.991a8.03,8.03,0,0,0,7.713-5.822h12.115a2.183,2.183,0,1,0,0-4.366H185.152a8.03,8.03,0,0,0-7.713-5.822H142.448a8.03,8.03,0,0,0-7.713,5.822H122.593A2.185,2.185,0,0,0,120.406,428.505Zm22.042-3.639h34.991a3.639,3.639,0,1,1,0,7.277H142.448a3.639,3.639,0,1,1,0-7.277Z" transform="translate(-22.618 -297.135)"/><path d="M147.521,101.757a8.005,8.005,0,1,0,0,16.01h4.833c.159.419.329.835.514,1.246l-3.413,3.406A8.012,8.012,0,0,0,160.8,133.74l3.406-3.4q.62.279,1.256.519v4.81a8.021,8.021,0,0,0,16.042,0V130.86q.636-.241,1.256-.519l3.406,3.4a8.012,8.012,0,1,0,11.342-11.32l-3.414-3.407q.277-.617.514-1.246h4.834a8.005,8.005,0,1,0,0-16.01H194.6c-.159-.419-.329-.835-.514-1.246l3.414-3.407A8,8,0,0,0,192,83.441V82.108a18.357,18.357,0,0,0-5.425-13.072,18.559,18.559,0,0,0-5.2-3.656,13.271,13.271,0,1,0-15.789.009,18.5,18.5,0,0,0-10.633,16.72v1.333a8,8,0,0,0-5.5,13.663l3.414,3.407q-.277.617-.514,1.246h-4.834Zm0,11.644a3.639,3.639,0,1,1,0-7.277h3.665a22.7,22.7,0,0,0,0,7.277Zm17.258-19.633.014-.008a18,18,0,0,1,3.441-1.429l.076-.021a18.4,18.4,0,0,1,10.339,0l.076.021a18,18,0,0,1,3.437,1.427l.019.011a18.2,18.2,0,0,1,0,31.987l-.014.008a18,18,0,0,1-3.441,1.429l-.076.021a18.4,18.4,0,0,1-10.339,0l-.076-.021a18,18,0,0,1-3.436-1.427l-.02-.011a18.2,18.2,0,0,1,0-31.987Zm12.347-6.27a22.643,22.643,0,0,0-7.292,0V83.854a3.646,3.646,0,0,1,7.292,0ZM157.7,130.654a3.641,3.641,0,1,1-5.154-5.145l2.582-2.577a22.609,22.609,0,0,0,2.367,2.783,22.892,22.892,0,0,0,2.787,2.364Zm19.424,5.016a3.646,3.646,0,0,1-7.292,0v-3.643a22.643,22.643,0,0,0,7.292,0Zm17.288-10.16a3.642,3.642,0,0,1-5.156,5.144l-2.58-2.575a22.844,22.844,0,0,0,2.787-2.364,22.587,22.587,0,0,0,2.367-2.783Zm5.025-19.386a3.639,3.639,0,1,1,0,7.277h-3.665a22.7,22.7,0,0,0,0-7.277Zm-3.955-14.68a3.613,3.613,0,0,1-1.071,2.572l-2.582,2.577a22.487,22.487,0,0,0-5.153-5.146l2.581-2.576a3.649,3.649,0,0,1,6.225,2.573Zm-30.9-36.7a8.9,8.9,0,1,1,8.9,8.878A8.9,8.9,0,0,1,164.584,54.745Zm8.9,13.245a14.13,14.13,0,0,1,14.146,14.118v2.519a8.078,8.078,0,0,0-1.462,1.156l-3.407,3.4q-.62-.279-1.256-.519V83.854a8.021,8.021,0,0,0-16.042,0v4.809q-.636.241-1.256.519l-3.406-3.4a8.069,8.069,0,0,0-1.463-1.157V82.108A14.148,14.148,0,0,1,173.48,67.99ZM152.546,94.014a3.642,3.642,0,0,1,5.156-5.144l2.58,2.575A22.846,22.846,0,0,0,157.5,93.81a22.585,22.585,0,0,0-2.367,2.783Z" transform="translate(-36.154 -29.42)"/><path d="M221.073,254.611a2.184,2.184,0,0,0,.77-2.99,7.134,7.134,0,1,1,6.033,3.509,2.183,2.183,0,1,0-.069,4.366h.187a11.5,11.5,0,1,0-9.911-5.655A2.184,2.184,0,0,0,221.073,254.611Z" transform="translate(-90.663 -167.132)"/></g></svg>