<svg xmlns="http://www.w3.org/2000/svg" width="150" height="150" viewBox="0 0 150 150"><defs><style>.a{fill:#fff;}.b{fill:#ef3829;}.c{fill:#afafaf;}.d{fill:#dedede;}</style></defs><path class="a" d="M94.257,10H15.852A5.855,5.855,0,0,0,10,15.86V148.289a5.855,5.855,0,0,0,5.852,5.86H116.494a5.856,5.856,0,0,0,5.852-5.86V38.128Zm0,0" transform="translate(-7.074 -7.074)"/><path class="b" d="M303.829,38.092h22.236L297.977,10V32.24A5.851,5.851,0,0,0,303.829,38.092Zm0,0" transform="translate(-210.653 -7.077)"/><path class="c" d="M158,412.375h9.363V438.6H158Zm0,0" transform="translate(-111.707 -291.524)"/><path class="d" d="M366,285h9.363v63.491H366Zm0,0" transform="translate(-258.764 -201.417)"/><path class="b" d="M256,355h11.118v43.01H256Zm0,0" transform="translate(-180.992 -250.936)"/><path class="d" d="M463,218.75h11.411v82.874H463Zm0,0" transform="translate(-327.337 -154.55)"/><path class="c" d="M122.249,127.659V108.429a23.991,23.991,0,0,0,7.168,42.124,24,24,0,0,0,16.817-22.895Zm0,0" transform="translate(-79.6 -76.647)"/><path class="b" d="M182.6,71.156v30.135h21.184A32.028,32.028,0,0,0,182.6,71.156Zm0,0" transform="translate(-129.091 -50.337)"/><path d="M147.07,61.157H128.32a2.929,2.929,0,0,0-2.93,2.93V78.882a2.93,2.93,0,1,0,5.859,0V67.017h12.891v77.124H131.25V100.854a2.93,2.93,0,1,0-5.859,0v43.286h-5.859V83.5a2.929,2.929,0,0,0-2.93-2.93H97.852a2.929,2.929,0,0,0-2.93,2.93v60.645H89.063V104a2.929,2.929,0,0,0-2.93-2.93H67.383a2.929,2.929,0,0,0-2.93,2.93v40.137H58.594V120.813a2.929,2.929,0,0,0-2.93-2.93H36.914a2.929,2.929,0,0,0-2.93,2.93v23.328H8.789a2.932,2.932,0,0,1-2.93-2.93V8.789a2.932,2.932,0,0,1,2.93-2.93H84.368V25.2a8.8,8.8,0,0,0,8.789,8.789h19.336V70.02a2.93,2.93,0,0,0,5.859,0V31.056a2.93,2.93,0,0,0-.858-2.071L89.369.858A2.93,2.93,0,0,0,87.3,0H8.789A8.8,8.8,0,0,0,0,8.789V141.211A8.8,8.8,0,0,0,8.789,150H147.07a2.929,2.929,0,0,0,2.93-2.93V64.087A2.929,2.929,0,0,0,147.07,61.157ZM90.228,25.2V10l18.123,18.123H93.157A2.933,2.933,0,0,1,90.228,25.2ZM39.844,144.141v-20.4H52.734v20.4Zm30.469,0V106.934H83.2v37.207Zm30.469,0V86.426h12.891v57.715Zm0,0" transform="translate(0 0)"/><path d="M430.926,300.743a2.927,2.927,0,1,0-2.069-.857A2.949,2.949,0,0,0,430.926,300.743Zm0,0" transform="translate(-302.577 -208.493)"/><path d="M80.512,54.73a2.926,2.926,0,0,0-2.926,2.926v5.263A26.911,26.911,0,1,0,107.264,92.6h5.263a2.926,2.926,0,0,0,2.926-2.926A34.98,34.98,0,0,0,80.512,54.73Zm0,56a21.06,21.06,0,0,1-2.926-41.915V89.671A2.926,2.926,0,0,0,80.512,92.6h20.856A21.092,21.092,0,0,1,80.512,110.73Zm2.926-23.985V60.727a29.145,29.145,0,0,1,26.017,26.018Zm0,0" transform="translate(-37.919 -38.717)"/><path d="M115.735,297.176a2.926,2.926,0,0,0-2.926-2.926H56.926a2.926,2.926,0,0,0,0,5.852h55.884A2.926,2.926,0,0,0,115.735,297.176Zm0,0" transform="translate(-38.2 -208.039)"/><path d="M56.926,342.5a2.926,2.926,0,1,0,0,5.852H75.651a2.926,2.926,0,1,0,0-5.852Zm0,0" transform="translate(-38.2 -242.153)"/><path d="M168.937,343.358A2.923,2.923,0,1,0,171,342.5,2.936,2.936,0,0,0,168.937,343.358Zm0,0" transform="translate(-118.834 -242.153)"/></svg>