<svg xmlns="http://www.w3.org/2000/svg" width="20.893" height="24.642" viewBox="0 0 20.893 24.642"><defs><style>.a{fill:#ef3829;}</style></defs><path class="a" d="M8.117,10.509a1.553,1.553,0,0,0-.39.936v9.9a.55.55,0,0,0,.55.55h14.3a.55.55,0,0,0,.55-.55h0v-9.9a1.541,1.541,0,0,0-.392-.942v0L15.814,3.6a.55.55,0,0,0-.781,0h0Zm-3.14.9A4.6,4.6,0,0,1,6.147,8.591l0,0L14.258.485a1.649,1.649,0,0,1,2.331,0L24.7,8.6a4.558,4.558,0,0,1,1.165,2.8V23a1.65,1.65,0,0,1-1.65,1.65H6.627A1.65,1.65,0,0,1,4.977,23h0Z" transform="translate(-4.977 -0.003)"/></svg>