<svg xmlns="http://www.w3.org/2000/svg" width="166" height="150" viewBox="0 0 166 150"><defs><style>.a{fill:#afafaf;}.b{fill:#f7f7f7;}.c{fill:#fff;}.d{fill:#dedede;}.e{fill:#fbfeff;}.f{fill:#ef3829;}</style></defs><g transform="translate(-0.001 -0.191)"><path class="a" d="M352.292,349.089l4.4-8.495,2.734,0,4.757,8.5,4.589-12.273h2.9a11.915,11.915,0,0,1,11.856,13.119v21.1l-50.577.007V349.94A11.917,11.917,0,0,1,344.81,336.82h3.266Zm0,0" transform="translate(-220.238 -223.568)"/><path class="b" d="M395.622,251.705v5.524a11,11,0,0,1-11.006,11h-.934a11,11,0,0,1-11-11v-5.524a11,11,0,0,1,11-11.006h.934A11.006,11.006,0,0,1,395.622,251.705Zm0,0" transform="translate(-246.549 -159.678)"/><path class="c" d="M209.134,104.621a11.919,11.919,0,0,1,11.86,13.119v21.106l-50.58.007V117.74a11.921,11.921,0,0,1,11.862-13.119h3.266l4.217,12.273,4.4-8.5h2.734l4.76,8.5,4.586-12.273Zm0,0" transform="translate(-112.703 -69.349)"/><path class="a" d="M264.487,262.82v27.245L244.53,296.5l-.339-.108V269.147l.339.109Zm0,0" transform="translate(-161.536 -174.401)"/><path class="d" d="M205.889,256.584l-19.62-6.328,19.959-6.436,19.958,6.436-19.958,6.436Zm0,0" transform="translate(-123.227 -161.681)"/><path class="e" d="M233.083,19.51v5.526a11,11,0,0,1-11,11h-.938a11,11,0,0,1-11-11V19.51a11,11,0,0,1,11-11h.938A11,11,0,0,1,233.083,19.51Zm0,0" transform="translate(-139.012 -5.499)"/><path class="f" d="M205.889,269.148v27.245l-19.62-6.328V262.82Zm0,0" transform="translate(-123.22 -174.401)"/><path class="f" d="M27.223,349.089l4.4-8.495,2.73,0,4.76,8.5,4.589-12.273h2.9a11.917,11.917,0,0,1,11.856,13.12v21.1l-50.576.007V349.94A11.915,11.915,0,0,1,19.739,336.82H23Zm0,0" transform="translate(-5.171 -223.568)"/><path class="b" d="M58.606,240.7h.935a11.006,11.006,0,0,1,11,11.006v5.52a11.006,11.006,0,0,1-11,11.006h-.935a11.005,11.005,0,0,1-11-11.006v-5.52a11.005,11.005,0,0,1,11-11.006Zm0,0" transform="translate(-31.477 -159.678)"/><g transform="translate(0.001 0.191)"><path d="M192.911,142.259v-6.275l22.637,0a2.761,2.761,0,0,0,2.768-2.71V112.3a14.839,14.839,0,0,0-14.685-16.1h-2.9a2.777,2.777,0,0,0-2.541,1.834l-2.541,6.834-1.9-3.308a2.626,2.626,0,0,0-2.362-1.3h-2.734a2.641,2.641,0,0,0-2.4,1.392l-1.49,2.838L182.6,98.111a2.792,2.792,0,0,0-2.563-1.92h-3.266a14.841,14.841,0,0,0-14.687,16.1v20.983a2.81,2.81,0,0,0,2.8,2.71l22.609,0v6.273Zm-25.362-30.367a9.378,9.378,0,0,1,9.224-10.281H178.1l3.59,10.515a2.747,2.747,0,0,0,2.365,1.858,2.688,2.688,0,0,0,2.605-1.437l3.4-6.556,3.721,6.648a2.714,2.714,0,0,0,2.572,1.38,2.789,2.789,0,0,0,2.331-1.825l3.926-10.583h1.016a9.417,9.417,0,0,1,9.221,10.245c-.009.09.044.218.044.31v18.4l-45.391.007v-18.4c0-.091.052-.183.044-.274Zm0,0" transform="translate(-107.201 -63.973)"/><path d="M59.593,335.751l-4.336,3.182a14.369,14.369,0,0,0-2.975-4.987,14.588,14.588,0,0,0-10.852-4.756h-2.9a2.653,2.653,0,0,0-2.538,1.7l-2.543,6.771-1.9-3.415a2.681,2.681,0,0,0-2.361-1.355l-2.73.028h0a2.672,2.672,0,0,0-2.406,1.422L22.557,337.2,20.4,330.966a2.662,2.662,0,0,0-2.562-1.776H14.569a14.47,14.47,0,0,0-14.5,15.833V366a2.655,2.655,0,0,0,2.661,2.71l50.549-.007A2.688,2.688,0,0,0,55.957,366V345.114l6.822-4.992Zm-9.023,8.871a2.689,2.689,0,0,0-.033.273v18.394l-45.052.005v-18.4a2.753,2.753,0,0,0-.046-.274,9.075,9.075,0,0,1,9.13-10.01H15.9l3.561,10.3c0,.015.009,0,.015.011l.013.022c0,.005,0,0,.005.007a2.659,2.659,0,0,0,.353.676.251.251,0,0,1,.017.022,2.746,2.746,0,0,0,.525.54l.017.012a2.678,2.678,0,0,0,.666.373l.008,0a2.7,2.7,0,0,0,.763.172h.022c.061,0,.122.008.184.008s.122,0,.183-.008h.034a2.815,2.815,0,0,0,.376-.057l.016,0a2.733,2.733,0,0,0,.336-.1c.015-.005.03-.011.045-.017a2.748,2.748,0,0,0,.328-.154l.025-.016a2.553,2.553,0,0,0,.27-.177c.02-.015.041-.029.061-.045a2.682,2.682,0,0,0,.258-.23l.036-.038a2.648,2.648,0,0,0,.2-.238c.015-.02.03-.04.044-.06a2.514,2.514,0,0,0,.189-.307.046.046,0,0,0,.007-.011l3.4-6.562,3.721,6.642a2.709,2.709,0,0,0,2.571,1.377,2.646,2.646,0,0,0,2.331-1.69l3.931-10.449h1.016a9.087,9.087,0,0,1,9.139,10.011Zm0,0" transform="translate(-0.001 -218.714)"/><path d="M223.582,272.211V244.966a2.723,2.723,0,0,0-1.892-2.579l-19.966-6.436a2.713,2.713,0,0,0-1.666,0l-19.974,6.436a2.72,2.72,0,0,0-1.893,2.579v27.245a2.721,2.721,0,0,0,1.891,2.579l19.634,6.33.343.109a2.722,2.722,0,0,0,1.659,0l19.972-6.436a2.725,2.725,0,0,0,1.892-2.579Zm-22.7-30.833,11.128,3.589-11.128,3.589-11.128-3.59Zm-17.276,7.309,14.227,4.58v21.551l-14.227-4.581Zm19.647,26.347V253.485l14.9-4.8v21.549Zm0,0" transform="translate(-117.886 -156.737)"/><path d="M215.886,33.388h.938a13.94,13.94,0,0,0,13.821-13.851V14.011A13.914,13.914,0,0,0,216.824.191h-.938a13.8,13.8,0,0,0-13.695,13.819v5.526A13.831,13.831,0,0,0,215.886,33.388Zm-8.275-19.377a8.379,8.379,0,0,1,8.275-8.4h.938a8.488,8.488,0,0,1,8.4,8.4v5.526a8.515,8.515,0,0,1-8.4,8.431h-.938a8.406,8.406,0,0,1-8.275-8.431Zm0,0" transform="translate(-133.757 -0.191)"/><path d="M53.045,233.19a13.708,13.708,0,0,0-13.854,13.549v5.524a13.909,13.909,0,0,0,13.854,13.784h.935a13.749,13.749,0,0,0,13.665-13.784v-5.524A13.547,13.547,0,0,0,53.981,233.19Zm9.18,13.549v5.524a8.323,8.323,0,0,1-8.245,8.364h-.935a8.484,8.484,0,0,1-8.434-8.364v-5.524a8.286,8.286,0,0,1,8.434-8.13h.935a8.122,8.122,0,0,1,8.245,8.13Zm0,0" transform="translate(-25.916 -154.911)"/><path d="M378.069,233.19a13.731,13.731,0,0,0-13.878,13.549v5.524a13.932,13.932,0,0,0,13.878,13.784H379a13.728,13.728,0,0,0,13.642-13.784v-5.524A13.527,13.527,0,0,0,379,233.19Zm9.156,13.549v5.524A8.3,8.3,0,0,1,379,260.628h-.934a8.505,8.505,0,0,1-8.458-8.364v-5.524a8.307,8.307,0,0,1,8.458-8.13H379a8.1,8.1,0,0,1,8.222,8.13Zm0,0" transform="translate(-240.936 -154.911)"/><path d="M354.154,329.19h-2.9a2.653,2.653,0,0,0-2.538,1.7l-2.541,6.765-1.9-3.41a2.676,2.676,0,0,0-2.361-1.355l-2.734.026h0a2.673,2.673,0,0,0-2.4,1.424l-1.491,2.858-2.159-6.234a2.663,2.663,0,0,0-2.567-1.773h-3.266a14.517,14.517,0,0,0-13.829,9.774l-3.88-2.862-3.185,4.361,6.366,4.648V366a2.677,2.677,0,0,0,2.68,2.71l50.539-.007a2.679,2.679,0,0,0,2.673-2.71V345.023a14.472,14.472,0,0,0-14.5-15.833Zm9.127,15.43a2.75,2.75,0,0,0-.045.274v18.394l-45.052.005v-18.4a2.687,2.687,0,0,0-.034-.273,9.087,9.087,0,0,1,9.142-10.011h1.331l3.562,10.3c0,.015.009,0,.015.011l.013.023c0,.005,0,0,.005.007a2.66,2.66,0,0,0,.353.676c.005.008.012.015.017.022a2.708,2.708,0,0,0,.525.54l.016.012a2.753,2.753,0,0,0,.667.373l.007,0a2.707,2.707,0,0,0,.763.172h.024c.061,0,.122.008.184.008s.122,0,.183-.008h.033a2.782,2.782,0,0,0,.377-.057l.015,0a2.685,2.685,0,0,0,.339-.1.45.45,0,0,0,.045-.017,2.741,2.741,0,0,0,.328-.154l.025-.016a2.437,2.437,0,0,0,.27-.177l.062-.045a2.818,2.818,0,0,0,.257-.23.311.311,0,0,0,.034-.038,2.888,2.888,0,0,0,.2-.238l.044-.06a2.682,2.682,0,0,0,.188-.307l.008-.011,3.4-6.564,3.719,6.645a2.715,2.715,0,0,0,2.571,1.377,2.649,2.649,0,0,0,2.333-1.69l3.93-10.449h1.016a9.077,9.077,0,0,1,9.127,10.01Zm0,0" transform="translate(-202.72 -218.714)"/></g></g></svg>