<svg xmlns="http://www.w3.org/2000/svg" width="214" height="39" viewBox="0 0 214 39"><defs><style>.a{fill:#ef3829;}.b{font-size:19px;font-family:DINNextLTPro-Medium, DIN Next LT Pro;font-weight:500;}</style></defs><g transform="translate(-110 -24)"><g transform="translate(110 24)"><path class="a" d="M257.412,81.234a6.462,6.462,0,0,1,5.849,3.785h4.309a10.79,10.79,0,1,0,0,5.707h-4.309a6.472,6.472,0,0,1-5.849,3.781,6.638,6.638,0,0,1,0-13.273" transform="translate(-213.001 -66.502)"/><rect class="a" width="4.083" height="21.567" transform="translate(56.692 10.464)"/><path class="a" d="M472.183,108.207a10.113,10.113,0,0,0-4.748-1.087c-2.734,0-4.671.736-5.791,2.2a6.561,6.561,0,0,0-1.2,3.594h4.106a3.272,3.272,0,0,1,.6-1.527,2.6,2.6,0,0,1,2.138-.764,4.052,4.052,0,0,1,2.026.4,1.451,1.451,0,0,1,.705,1.4,1.3,1.3,0,0,1-.91,1.239,6.282,6.282,0,0,1-1.688.379l-1.449.185a9.268,9.268,0,0,0-3.554,1.068,4.794,4.794,0,0,0-2.318,4.452,4.428,4.428,0,0,0,4.77,4.7,8.367,8.367,0,0,0,5.3-1.692c.023.314,0,1.354,0,1.692h4.037l.055-12.149c-.014-2-.7-3.369-2.085-4.095M470,117.7a3.536,3.536,0,0,1-1.208,3.014,4.19,4.19,0,0,1-2.528.825,2.286,2.286,0,0,1-1.478-.489,2.345,2.345,0,0,1,.392-3.468,5.938,5.938,0,0,1,1.928-.6l.952-.183a6.658,6.658,0,0,0,1.121-.294,4.641,4.641,0,0,0,.818-.425V117.7Z" transform="translate(-396.961 -92.42)"/><path class="a" d="M591.8,107.768a6.974,6.974,0,0,0-1.566.439,7.613,7.613,0,0,0-2.916,2.369v-2.119l-3.906-.06v16.581h4.074l-.011-7.888a6.784,6.784,0,0,1,.486-2.941,4.366,4.366,0,0,1,3.694-2.3l.5.014.749.054-.038-4.209a9.531,9.531,0,0,0-1.064.058" transform="translate(-503.349 -92.929)"/><path class="a" d="M711.114,10.517,711.135,0h-4.1l-.008,10.5c.21-.015,4.084.014,4.084.014" transform="translate(-610.004)"/><path class="a" d="M660.333,116.008a4.588,4.588,0,1,1,4.586,4.588,4.583,4.583,0,0,1-4.586-4.588m-4.133,0a8.724,8.724,0,1,0,8.72-8.728,8.722,8.722,0,0,0-8.72,8.728" transform="translate(-566.15 -92.558)"/><path class="a" d="M770.34,27.157l2.9,3.011,9.632-9.617-2.938-3Z" transform="translate(-664.626 -15.142)"/><path class="a" d="M811.47,143.165h10.638c-.018-.225,0-4.183,0-4.183l-10.642,0Z" transform="translate(-700.112 -119.908)"/><path d="M0,75.987a.3.3,0,0,1,.317-.317H4.091a.49.49,0,0,1,.508.317l5.454,12.3h.126l5.359-12.3a.489.489,0,0,1,.508-.317h3.709a.3.3,0,0,1,.317.317V96.915a.3.3,0,0,1-.317.317H16.171a.3.3,0,0,1-.317-.317V84.77h-.126l-4,9.1a.606.606,0,0,1-.6.412H8.942a.606.606,0,0,1-.6-.412l-3.995-9.1H4.218V96.916a.3.3,0,0,1-.317.317H.317A.3.3,0,0,1,0,96.916Z" transform="translate(0 -65.286)"/><path d="M176.157,79.442a.3.3,0,0,1-.317-.317V75.987a.3.3,0,0,1,.317-.317h3.805a.3.3,0,0,1,.317.317v3.14a.3.3,0,0,1-.317.317h-3.805Zm0,17.789a.3.3,0,0,1-.317-.317V82.2a.3.3,0,0,1,.317-.317h3.805a.3.3,0,0,1,.317.317V96.913a.3.3,0,0,1-.317.317h-3.805Z" transform="translate(-151.71 -65.286)"/></g><text class="b" transform="translate(235 56)"><tspan x="0" y="0">dashboard</tspan></text></g></svg>